name C:/MyDriveSym/Projects/mobilecap/Data\Session20210816_0002\mocap\ForceDataProcessed\walking3_forces.mot
datacolumns 19
datarows 24
range 0.34450000 0.35600000
endheader 
time	R_ground_force_vx	R_ground_force_vy	R_ground_force_vz	R_ground_force_px	R_ground_force_py	R_ground_force_pz	R_ground_torque_x	R_ground_torque_y	R_ground_torque_z	L_ground_force_vx	L_ground_force_vy	L_ground_force_vz	L_ground_force_px	L_ground_force_py	L_ground_force_pz	L_ground_torque_x	L_ground_torque_y	L_ground_torque_z	
          0.34450000	        -20.25763200	        570.77798500	        -18.64239900	          0.21653300	          0.00600000	         -0.22602000	          0.00000000	         -0.70946800	          0.00000000	          0.00000000	          0.00000000	          0.00000000	          0.70832400	          0.00000000	         -0.28213800	          0.00000000	          0.00000000	          0.00000000	
          0.34500000	        -20.10497800	        570.74710700	        -18.63535500	          0.21669100	          0.00600000	         -0.22600000	          0.00000000	         -0.72525200	          0.00000000	          0.00000000	          0.00000000	          0.00000000	          0.70832400	          0.00000000	         -0.28213800	          0.00000000	          0.00000000	          0.00000000	
          0.34550000	        -19.95201400	        570.71782300	        -18.62862500	          0.21684900	          0.00600000	         -0.22598000	          0.00000000	         -0.74101800	          0.00000000	          0.00000000	          0.00000000	          0.00000000	          0.70832400	          0.00000000	         -0.28213800	          0.00000000	          0.00000000	          0.00000000	
          0.34600000	        -19.79873100	        570.69014300	        -18.62220900	          0.21700700	          0.00600000	         -0.22596000	          0.00000000	         -0.75676900	          0.00000000	          0.00000000	          0.00000000	          0.00000000	          0.70832400	          0.00000000	         -0.28213800	          0.00000000	          0.00000000	          0.00000000	
          0.34650000	        -19.64512200	        570.66407700	        -18.61610900	          0.21716500	          0.00600000	         -0.22594000	          0.00000000	         -0.77250300	          0.00000000	          0.00000000	          0.00000000	          0.00000000	          0.70832400	          0.00000000	         -0.28213800	          0.00000000	          0.00000000	          0.00000000	
          0.34700000	        -19.49117800	        570.63963300	        -18.61032400	          0.21732200	          0.00600000	         -0.22592000	          0.00000000	         -0.78822100	          0.00000000	          0.00000000	          0.00000000	          0.00000000	          0.70832400	          0.00000000	         -0.28213800	          0.00000000	          0.00000000	          0.00000000	
          0.34750000	        -19.33689200	        570.61682100	        -18.60485400	          0.21747900	          0.00600000	         -0.22590000	          0.00000000	         -0.80392200	          0.00000000	          0.00000000	          0.00000000	          0.00000000	          0.70832400	          0.00000000	         -0.28213800	          0.00000000	          0.00000000	          0.00000000	
          0.34800000	        -19.18225600	        570.59565000	        -18.59970100	          0.21763600	          0.00600000	         -0.22588100	          0.00000000	         -0.81960700	          0.00000000	          0.00000000	          0.00000000	          0.00000000	          0.70832400	          0.00000000	         -0.28213800	          0.00000000	          0.00000000	          0.00000000	
          0.34850000	        -19.02726000	        570.57613100	        -18.59486300	          0.21779300	          0.00600000	         -0.22586100	          0.00000000	         -0.83527600	          0.00000000	          0.00000000	          0.00000000	          0.00000000	          0.70832400	          0.00000000	         -0.28213800	          0.00000000	          0.00000000	          0.00000000	
          0.34900000	        -18.87189900	        570.55827300	        -18.59034200	          0.21794900	          0.00600000	         -0.22584200	          0.00000000	         -0.85092800	          0.00000000	          0.00000000	          0.00000000	          0.00000000	          0.70832400	          0.00000000	         -0.28213800	          0.00000000	          0.00000000	          0.00000000	
          0.34950000	        -18.71616300	        570.54208700	        -18.58613800	          0.21810500	          0.00600000	         -0.22582200	          0.00000000	         -0.86656400	          0.00000000	          0.00000000	          0.00000000	          0.00000000	          0.70832400	          0.00000000	         -0.28213800	          0.00000000	          0.00000000	          0.00000000	
          0.35000000	        -18.56004600	        570.52758200	        -18.58225000	          0.21826100	          0.00600000	         -0.22580300	          0.00000000	         -0.88218400	          0.00000000	          0.00000000	          0.00000000	          0.00000000	          0.70832400	          0.00000000	         -0.28213800	          0.00000000	          0.00000000	          0.00000000	
          0.35050000	        -18.40353900	        570.51477000	        -18.57868000	          0.21841700	          0.00600000	         -0.22578400	          0.00000000	         -0.89778700	          0.00000000	          0.00000000	          0.00000000	          0.00000000	          0.70832400	          0.00000000	         -0.28213800	          0.00000000	          0.00000000	          0.00000000	
          0.35100000	        -18.24663500	        570.50365900	        -18.57542700	          0.21857200	          0.00600000	         -0.22576500	          0.00000000	         -0.91337400	          0.00000000	          0.00000000	          0.00000000	          0.00000000	          0.70832400	          0.00000000	         -0.28213800	          0.00000000	          0.00000000	          0.00000000	
          0.35150000	        -18.08932600	        570.49426200	        -18.57249200	          0.21872700	          0.00600000	         -0.22574600	          0.00000000	         -0.92894500	          0.00000000	          0.00000000	          0.00000000	          0.00000000	          0.70832400	          0.00000000	         -0.28213800	          0.00000000	          0.00000000	          0.00000000	
          0.35200000	        -17.93160400	        570.48658700	        -18.56987500	          0.21888200	          0.00600000	         -0.22572700	          0.00000000	         -0.94449900	          0.00000000	          0.00000000	          0.00000000	          0.00000000	          0.70832400	          0.00000000	         -0.28213800	          0.00000000	          0.00000000	          0.00000000	
          0.35250000	        -17.77346200	        570.48064700	        -18.56757700	          0.21903700	          0.00600000	         -0.22570900	          0.00000000	         -0.96003700	          0.00000000	          0.00000000	          0.00000000	          0.00000000	          0.70832400	          0.00000000	         -0.28213800	          0.00000000	          0.00000000	          0.00000000	
          0.35300000	        -17.61489300	        570.47645300	        -18.56559700	          0.21919100	          0.00600000	         -0.22569000	          0.00000000	         -0.97555900	          0.00000000	          0.00000000	          0.00000000	          0.00000000	          0.70832400	          0.00000000	         -0.28213800	          0.00000000	          0.00000000	          0.00000000	
          0.35350000	        -17.45588900	        570.47401400	        -18.56393700	          0.21934500	          0.00600000	         -0.22567200	          0.00000000	         -0.99106500	          0.00000000	          0.00000000	          0.00000000	          0.00000000	          0.70832400	          0.00000000	         -0.28213800	          0.00000000	          0.00000000	          0.00000000	
          0.35400000	        -17.29644300	        570.47334200	        -18.56259500	          0.21949800	          0.00600000	         -0.22565300	          0.00000000	         -1.00655400	          0.00000000	          0.00000000	          0.00000000	          0.00000000	          0.70832400	          0.00000000	         -0.28213800	          0.00000000	          0.00000000	          0.00000000	
          0.35450000	        -17.13654700	        570.47444900	        -18.56157400	          0.21965200	          0.00600000	         -0.22563500	          0.00000000	         -1.02202800	          0.00000000	          0.00000000	          0.00000000	          0.00000000	          0.70832400	          0.00000000	         -0.28213800	          0.00000000	          0.00000000	          0.00000000	
          0.35500000	        -16.97619400	        570.47734700	        -18.56087200	          0.21980500	          0.00600000	         -0.22561700	          0.00000000	         -1.03748400	          0.00000000	          0.00000000	          0.00000000	          0.00000000	          0.70832400	          0.00000000	         -0.28213800	          0.00000000	          0.00000000	          0.00000000	
          0.35550000	        -16.81537800	        570.48204600	        -18.56049000	          0.21995800	          0.00600000	         -0.22559900	          0.00000000	         -1.05292500	          0.00000000	          0.00000000	          0.00000000	          0.00000000	          0.70832400	          0.00000000	         -0.28213800	          0.00000000	          0.00000000	          0.00000000	
          0.35600000	        -16.65409000	        570.48855800	        -18.56042900	          0.22011000	          0.00600000	         -0.22558100	          0.00000000	         -1.06835000	          0.00000000	          0.00000000	          0.00000000	          0.00000000	          0.70832400	          0.00000000	         -0.28213800	          0.00000000	          0.00000000	          0.00000000	
